#!OML:ASF F:\VICON\USERDATA\INSTALL\rory3\rory3.ASF
:FULLY-SPECIFIED
:DEGREES
654
root -0.248466 18.1394 6.98226 -3.60709 -1.78515 -6.14074
lowerback 10.0415 0.821493 4.55438
upperback 0.427996 1.7328 2.23564
thorax -5.12629 0.771804 -0.473298
lowerneck -16.0983 -3.37416 -1.55585
upperneck 22.0905 -4.44389 0.546372
head 9.70278 -2.13102 -0.128897
rclavicle 9.50905e-015 4.91992e-015
rhumerus -28.2708 -20.0544 -78.9067
rradius 22.1665
rwrist 6.8232
rhand -17.412 17.3126
rfingers 7.12502
rthumb 8.83774 -12.4824
lclavicle 9.50905e-015 4.91992e-015
lhumerus -32.2796 4.59815 82.4141
lradius 24.5775
lwrist 6.12827
lhand -26.7266 21.6769
lfingers 7.12502
lthumb -0.156039 51.6566
rfemur -5.27795 3.97661 33.0794
rtibia 28.1558
rfoot -15.525 -3.35505
rtoes 8.04964
lfemur -21.338 3.0997 -13.6107
ltibia 64.8508
lfoot -6.51595 -1.69472
ltoes -11.7211
655
root -0.248105 18.1327 7.14623 -3.53639 -1.89371 -6.24243
lowerback 10.0924 0.901578 4.75837
upperback 0.497851 1.86144 2.21895
thorax -5.06946 0.832064 -0.623253
lowerneck -16.2114 -3.38663 -1.5405
upperneck 21.857 -4.42556 0.413713
head 9.63745 -2.13691 -0.174475
rclavicle 9.56807e-015 -2.01766e-014
rhumerus -27.5774 -19.2268 -79.3954
rradius 22.6771
rwrist 6.13531
rhand -17.6411 16.5017
rfingers 7.12502
rthumb 8.61672 -13.3025
lclavicle 9.56807e-015 -2.01766e-014
lhumerus -32.3654 5.36811 82.2759
lradius 24.2511
lwrist 5.51838
lhand -26.8149 21.1704
lfingers 7.12502
lthumb -0.24131 51.15
rfemur -4.90004 3.64947 33.1659
rtibia 28.3212
rfoot -16.0392 -2.97771
rtoes 9.06623
lfemur -22.1692 3.05975 -13.5945
ltibia 63.6506
lfoot -6.62688 -0.966597
ltoes -10.5416
656
root -0.248983 18.1264 7.32167 -3.42989 -2.1638 -6.17612
lowerback 10.2151 1.02814 4.75743
upperback 0.354252 2.04095 2.149
thorax -5.27899 0.913328 -0.72516
lowerneck -16.1946 -3.33639 -1.55679
upperneck 21.8949 -4.34732 0.396538
head 9.64689 -2.10379 -0.167576
rclavicle 3.16114e-014 9.24349e-015
rhumerus -27.2212 -18.4417 -79.6606
rradius 22.9161
rwrist 5.64122
rhand -17.791 15.6765
rfingers 7.12502
rthumb 8.47204 -14.1336
lclavicle 3.16114e-014 9.24349e-015
lhumerus -32.9348 5.9513 82.0285
lradius 23.8176
lwrist 5.01345
lhand -27.074 19.4815
lfingers 7.12502
lthumb -0.491525 49.4606
rfemur -4.43706 3.41339 33.0664
rtibia 28.5149
rfoot -16.7387 -2.60921
rtoes 9.65898
lfemur -22.9758 3.07107 -13.782
ltibia 62.2702
lfoot -7.24338 0.0362554
ltoes -7.30317
657
root -0.253691 18.1059 7.48797 -3.31456 -2.36209 -6.5041
lowerback 10.4144 1.10285 5.12042
upperback 0.221324 2.20452 2.16815
thorax -5.51166 0.977464 -0.937799
lowerneck -16.0641 -3.29314 -1.57802
upperneck 21.7984 -4.31227 0.522063
head 9.59185 -2.07613 -0.11269
rclavicle 1.55137e-014 3.50855e-014
rhumerus -26.8715 -17.82 -79.9351
rradius 23.2153
rwrist 5.34728
rhand -17.8255 14.8379
rfingers 7.12502
rthumb 8.43872 -14.9735
lclavicle 1.55137e-014 3.50855e-014
lhumerus -33.4373 6.34614 81.7871
lradius 23.4989
lwrist 4.75116
lhand -27.1631 18.6621
lfingers 7.12502
lthumb -0.577598 48.641
rfemur -3.91212 3.49887 33.5084
rtibia 28.5813
rfoot -17.212 -2.86553
rtoes 9.52875
lfemur -23.7854 3.21204 -13.483
ltibia 60.7803
lfoot -7.76616 0.599044
ltoes -5.88901
658
root -0.254009 18.0673 7.65581 -3.15227 -2.47484 -6.76396
lowerback 10.2381 1.1552 5.41914
upperback 0.298993 2.29466 2.21199
thorax -5.31659 1.02054 -1.06597
lowerneck -16.0257 -3.25309 -1.63083
upperneck 21.4844 -4.24574 0.559362
head 9.47587 -2.04702 -0.0785985
rclavicle 1.20428e-014 2.3059e-014
rhumerus -26.2048 -17.2483 -80.2621
rradius 23.6365
rwrist 4.93239
rhand -17.8444 15.2868
rfingers 7.12502
rthumb 8.4205 -14.5254
lclavicle 1.20428e-014 2.3059e-014
lhumerus -33.5509 6.92537 81.6782
lradius 23.293
lwrist 4.50398
lhand -27.0998 20.1647
lfingers 7.12502
lthumb -0.516475 50.1438
rfemur -3.41965 3.58265 33.8636
rtibia 28.5268
rfoot -17.6532 -3.09479
rtoes 9.14702
lfemur -24.6311 3.30131 -13.2749
ltibia 59.1371
lfoot -7.78812 1.14207
ltoes -5.5547
659
root -0.250879 18.0464 7.83228 -2.9579 -2.611 -6.9265
lowerback 9.92813 1.21379 5.68745
upperback 0.388984 2.37427 2.20966
thorax -5.03259 1.06204 -1.21907
lowerneck -16.3616 -3.2028 -1.66093
upperneck 21.4965 -4.16063 0.556828
head 9.54228 -2.00785 -0.0694721
rclavicle -1.19453e-014 -2.66993e-014
rhumerus -25.6293 -16.2859 -80.6806
rradius 24.264
rwrist 3.95496
rhand -18.3833 17.6649
rfingers 7.12502
rthumb 7.90044 -12.1675
lclavicle -1.19453e-014 -2.66993e-014
lhumerus -33.766 7.51032 81.4741
lradius 23.2636
lwrist 4.05857
lhand -26.9472 23.8527
lfingers 7.12502
lthumb -0.369105 53.8321
rfemur -2.84173 3.47733 34.0115
rtibia 28.2681
rfoot -18.2099 -2.85251
rtoes 9.26877
lfemur -25.3357 3.31973 -13.1883
ltibia 57.2284
lfoot -7.62031 2.28891
ltoes -5.11384
660
root -0.251709 18.0579 8.00976 -2.84957 -2.84486 -6.98813
lowerback 10.0197 1.34044 5.79377
upperback 0.375506 2.56038 2.17298
thorax -5.08072 1.1491 -1.34482
lowerneck -16.733 -3.2004 -1.5071
upperneck 21.5335 -4.15624 0.406249
head 9.61695 -2.00792 -0.153125
rclavicle 1.81398e-014 6.47526e-015
rhumerus -25.4103 -15.3327 -81.0256
rradius 25.1946
rwrist 2.99216
rhand -19.2876 20.6232
rfingers 7.12502
rthumb 7.02757 -9.24018
lclavicle 1.81398e-014 6.47526e-015
lhumerus -34.1372 7.66909 81.3769
lradius 23.3383
lwrist 4.08335
lhand -27.1323 25.3795
lfingers 7.12502
lthumb -0.54784 55.3585
rfemur -2.16712 3.36451 34.0499
rtibia 27.9597
rfoot -18.5838 -2.51875
rtoes 10.326
lfemur -25.6989 3.2839 -13.1792
ltibia 54.9875
lfoot -7.84336 3.29474
ltoes -4.71591
